<?xml version="1.0" standalone="no"?>
<!DOCTYPE svg PUBLIC "-//W3C//DTD SVG 20010904//EN"
 "http://www.w3.org/TR/2001/REC-SVG-20010904/DTD/svg10.dtd">
<svg version="1.0" xmlns="http://www.w3.org/2000/svg"
 width="768.000000pt" height="512.000000pt" viewBox="0 0 768.000000 512.000000"
 preserveAspectRatio="xMidYMid meet">

<g transform="translate(0.000000,512.000000) scale(0.100000,-0.100000)"
fill="#000000" stroke="none">
<path d="M3855 4639 c-4 -6 -4 -13 -1 -16 3 -4 6 -1 6 6 0 7 5 9 12 5 7 -4 8
-3 4 4 -9 15 -13 15 -21 1z"/>
<path d="M3950 4630 c-9 -6 -10 -10 -3 -10 6 0 15 5 18 10 8 12 4 12 -15 0z"/>
<path d="M3985 4630 c-3 -6 1 -7 9 -4 18 7 21 14 7 14 -6 0 -13 -4 -16 -10z"/>
<path d="M3173 4585 c-17 -7 -34 -18 -37 -24 -4 -6 -20 -11 -36 -11 -17 0 -38
-9 -51 -22 -12 -13 -19 -17 -15 -10 9 14 2 15 -22 2 -24 -13 -114 -52 -127
-54 -13 -3 -90 -38 -180 -82 -77 -37 -212 -77 -228 -67 -6 3 -7 1 -4 -4 4 -6
-7 -10 -27 -9 -19 0 -32 4 -30 8 8 12 -55 2 -89 -15 -18 -9 -72 -23 -121 -32
-89 -16 -178 -49 -596 -225 -209 -87 -230 -99 -207 -118 11 -10 110 7 451 74
240 48 438 85 440 83 2 -2 6 -22 8 -44 3 -36 1 -40 -22 -43 -14 -2 -29 -7 -33
-11 -10 -10 10 -174 25 -213 7 -19 18 -28 33 -28 12 0 28 -7 35 -15 7 -8 16
-15 21 -15 17 0 79 -45 79 -57 0 -20 28 -15 40 7 6 11 24 27 41 35 l30 16 272
-167 c150 -93 297 -183 327 -201 48 -29 55 -37 52 -61 -2 -15 -10 -32 -19 -39
-19 -15 -39 -135 -53 -317 -8 -113 -8 -132 6 -147 13 -15 14 -28 5 -85 -5 -37
-14 -70 -18 -74 -4 -5 -105 -59 -223 -123 -118 -63 -246 -131 -285 -152 -38
-20 -128 -69 -198 -107 l-128 -70 -147 55 c-161 61 -174 64 -310 76 -62 6 -98
14 -111 25 -25 22 -28 20 -23 -14 4 -27 0 -32 -33 -46 -29 -12 -43 -13 -71 -4
-28 10 -34 16 -34 41 0 17 6 32 15 35 13 5 13 8 0 21 -8 8 -24 15 -35 16 -11
1 -20 4 -20 8 0 4 -23 13 -50 20 -32 8 -46 16 -38 21 7 4 -2 5 -21 1 -21 -4
-32 -2 -28 4 3 5 -10 15 -30 22 -20 7 -52 23 -72 35 -19 11 -60 28 -91 37 -30
9 -143 42 -250 74 -107 31 -208 61 -225 65 -16 5 -77 23 -133 40 -111 33 -139
35 -156 8 -8 -13 -6 -22 9 -38 22 -24 30 -28 375 -172 321 -134 468 -187 623
-222 98 -23 117 -31 117 -46 0 -11 -10 -22 -22 -26 -30 -9 -38 -22 -38 -61 0
-30 42 -124 67 -151 27 -28 15 -51 -39 -78 -61 -30 -88 -52 -88 -70 0 -21 39
-28 59 -10 27 24 37 19 14 -6 -20 -22 -53 -90 -53 -110 0 -19 18 3 25 29 7 29
42 73 57 73 5 0 -2 -19 -16 -42 -34 -61 -41 -100 -21 -137 8 -17 22 -31 31
-31 9 0 12 -5 8 -12 -5 -8 -2 -9 9 -5 9 3 19 1 23 -4 3 -6 16 -8 29 -5 16 4
25 1 29 -10 9 -23 7 -46 -3 -40 -11 7 -21 -28 -12 -41 11 -17 52 -35 67 -29 8
3 14 12 14 20 0 8 39 34 93 61 50 26 99 53 107 60 27 23 79 45 101 42 16 -1
27 7 41 32 17 30 17 36 4 56 -8 12 -17 37 -21 56 -6 34 -5 35 58 68 l63 35
120 -17 c204 -28 529 -78 532 -82 2 -2 -5 -47 -16 -101 -14 -69 -17 -104 -10
-117 5 -10 6 -26 2 -35 -4 -9 -7 -49 -8 -89 -1 -58 -5 -75 -20 -86 -14 -10
-26 -55 -52 -193 -98 -515 -91 -466 -68 -488 11 -12 14 -26 9 -54 -5 -34 -3
-39 20 -50 14 -7 32 -12 40 -12 20 0 45 29 45 53 0 11 9 30 20 42 17 18 30 78
71 326 35 213 48 318 44 351 -4 37 -1 57 15 88 11 22 25 40 31 40 6 0 8 7 5
16 -3 8 3 33 14 54 11 22 20 49 20 61 0 17 105 286 308 787 27 66 37 72 68 44
30 -27 71 -42 117 -42 33 -1 46 -6 61 -26 17 -24 17 -33 6 -142 -7 -64 -14
-121 -17 -125 -7 -12 27 -47 47 -47 42 0 51 22 64 153 14 146 25 168 62 122
20 -25 24 -41 24 -98 0 -61 2 -68 23 -76 12 -5 93 -11 180 -13 153 -4 160 -4
204 19 25 14 47 23 49 21 2 -2 4 -34 5 -71 2 -80 22 -107 67 -91 l27 9 3 154
c3 172 6 180 72 181 52 0 110 19 145 46 18 13 36 24 41 24 13 0 314 -832 324
-896 5 -29 13 -62 19 -72 6 -11 8 -22 5 -25 -3 -2 7 -22 21 -43 32 -48 41 -80
25 -99 -15 -18 -8 -156 15 -315 7 -52 19 -154 25 -227 11 -117 15 -134 36
-154 19 -18 24 -33 24 -71 0 -43 3 -50 26 -58 18 -7 33 -6 52 3 25 12 27 17
27 73 0 36 5 67 13 77 12 14 11 41 -7 174 -11 87 -30 232 -41 323 -17 130 -25
169 -41 186 -14 15 -19 35 -19 77 0 31 5 57 10 57 15 0 12 26 -5 40 -11 9 -12
17 -5 30 6 10 10 27 10 38 0 15 9 21 38 25 20 3 171 39 334 78 164 40 300 70
303 68 6 -6 -11 -64 -26 -92 -16 -28 15 -87 45 -87 12 0 47 -18 77 -39 30 -21
68 -47 85 -57 17 -11 49 -30 71 -43 22 -14 44 -34 49 -45 17 -39 84 -15 84 30
0 23 52 72 71 66 5 -1 27 7 48 17 29 15 42 31 55 65 20 53 16 73 -25 117 -33
35 -39 51 -9 24 19 -17 20 -17 39 6 11 13 20 27 21 31 0 9 -51 49 -89 70 -17
9 -31 24 -31 32 0 8 13 53 29 100 25 77 27 90 17 131 -7 24 -17 50 -24 57 -7
7 -12 15 -12 19 0 4 51 24 113 44 61 21 158 61 213 90 126 64 582 337 613 366
27 26 24 49 -10 68 -25 14 -35 11 -180 -48 -85 -35 -297 -122 -473 -193 -316
-128 -348 -145 -362 -195 -4 -14 -14 -23 -26 -23 -23 0 -53 -15 -77 -39 -11
-11 -42 -21 -75 -25 -91 -12 -180 -41 -275 -92 l-89 -47 -441 274 -440 274 -1
77 c0 42 5 80 10 83 6 3 10 26 10 51 0 41 -24 354 -34 446 -5 42 -27 25 194
148 303 170 471 260 484 260 29 0 64 -22 75 -48 l12 -25 27 26 c15 14 44 33
64 41 20 9 39 20 43 26 3 5 16 10 29 10 28 0 43 27 55 105 6 33 13 76 17 96 5
31 3 38 -21 53 -15 10 -24 13 -21 7 4 -6 2 -11 -3 -11 -14 0 -14 16 0 80 10
47 12 50 27 37 10 -8 27 -19 39 -26 16 -8 735 -124 888 -144 14 -1 20 4 20 17
0 22 -104 64 -540 217 -284 100 -335 110 -515 108 -19 0 -39 6 -45 14 -5 7
-50 21 -98 30 -48 10 -96 22 -105 27 -27 15 -186 65 -199 62 -6 -1 -14 2 -18
8 -3 5 -16 10 -28 10 -13 0 -33 7 -45 16 -12 8 -22 13 -22 9 0 -3 -10 1 -22 9
-13 8 -50 22 -83 31 -33 9 -67 19 -75 22 -8 4 -19 5 -24 4 -5 -1 -12 2 -15 6
-9 12 -172 65 -180 58 -3 -4 3 -12 14 -18 31 -19 595 -212 737 -253 98 -28
131 -42 143 -60 9 -13 29 -26 50 -30 20 -3 35 -12 35 -20 0 -8 -4 -14 -9 -14
-18 0 -63 20 -77 35 -35 34 -74 -2 -74 -69 0 -22 -5 -68 -11 -102 -10 -60 -13
-65 -52 -86 -41 -23 -42 -25 -45 -79 l-3 -55 -127 -69 c-70 -37 -170 -90 -222
-118 -52 -28 -120 -64 -150 -82 -30 -17 -99 -53 -153 -81 l-97 -49 -70 38
c-40 22 -90 40 -117 44 -41 4 -53 11 -78 44 -16 22 -35 39 -43 39 -9 0 -31
-18 -50 -40 l-34 -41 -66 3 -67 3 -14 71 -14 71 27 29 c111 115 105 320 -13
414 l-41 33 0 125 c0 109 3 129 21 158 11 19 26 34 33 34 27 0 175 81 181 99
8 25 3 81 -7 75 -4 -3 -8 -1 -8 4 0 20 -54 31 -147 30 -54 -1 -88 -3 -75 -5
26 -5 25 -26 -2 -31 -11 -2 -19 4 -22 15 -5 17 -15 20 -87 20 -101 1 -137 -18
-137 -72 0 -27 7 -39 33 -59 19 -15 38 -26 44 -26 5 0 18 -9 27 -19 10 -10 37
-24 62 -30 37 -10 44 -15 44 -36 0 -29 -34 -99 -90 -190 -42 -67 -53 -95 -42
-110 4 -5 36 -10 72 -10 l65 0 3 -205 c2 -146 -1 -212 -10 -228 -11 -22 -127
-102 -147 -102 -6 0 -15 8 -20 19 -19 35 -40 33 -82 -10 -21 -22 -39 -44 -39
-49 0 -6 -28 -10 -62 -10 -50 -1 -79 -8 -138 -34 -99 -45 -112 -38 -121 60
-13 143 -29 363 -35 477 -5 98 -9 119 -24 127 -12 6 -23 5 -35 -4 -17 -12 -17
-25 -6 -207 12 -217 17 -396 10 -403 -4 -4 -291 163 -506 295 l-83 51 0 57 c0
56 -1 58 -37 77 -42 22 -48 39 -58 169 -8 97 -17 117 -50 109 -14 -3 -25 -2
-25 4 0 28 48 54 190 102 85 29 236 86 335 126 236 95 272 110 279 122 8 14
-36 12 -71 -3z m777 -50 c0 -8 -7 -15 -15 -15 -8 0 -15 7 -15 15 0 8 7 15 15
15 8 0 15 -7 15 -15z m110 -54 c0 -11 -49 -21 -69 -13 -11 5 -7 8 14 13 45 10
55 10 55 0z m-152 -358 c-3 -36 -4 -37 -45 -39 -27 -1 -43 2 -43 9 0 7 19 41
43 77 l42 65 3 -37 c2 -21 2 -55 0 -75z m99 -175 c29 -55 39 -129 24 -184 -12
-43 -64 -124 -81 -124 -6 0 -10 71 -10 191 l0 191 21 -14 c12 -8 33 -35 46
-60z m-1610 -154 c-3 -3 -12 -4 -19 -1 -8 3 -5 6 6 6 11 1 17 -2 13 -5z m1457
-301 c-9 -36 -6 -35 -50 -31 l-38 3 40 27 c50 34 56 34 48 1z m-23 -68 c0 -5
-7 -12 -16 -13 -23 -5 -47 6 -40 19 8 13 56 8 56 -6z m243 9 c9 -3 16 -10 16
-14 0 -15 -31 -20 -52 -9 -17 9 -18 13 -7 20 17 10 23 11 43 3z m-244 -101 c0
-18 -45 -16 -60 2 -10 13 -9 15 8 15 12 0 24 5 28 11 7 12 24 -7 24 -28z m99
0 c11 -21 9 -23 -13 -23 -24 0 -25 2 -14 25 6 14 12 24 13 23 1 -2 8 -13 14
-25z m-4 -53 c-3 -5 -10 -10 -16 -10 -5 0 -9 5 -9 10 0 6 7 10 16 10 8 0 12
-4 9 -10z m385 -4 c0 -8 -4 -18 -10 -21 -5 -3 -10 3 -10 14 0 12 5 21 10 21 6
0 10 -6 10 -14z m-517 -18 l22 -12 -25 -6 c-35 -8 -70 0 -70 16 0 17 43 18 73
2z m-413 -32 c0 -8 -4 -17 -9 -20 -4 -3 -11 -24 -15 -46 -3 -23 -10 -39 -15
-36 -5 3 -5 24 -1 46 4 22 3 40 -1 40 -16 0 -9 18 9 23 30 8 32 7 32 -7z
m-175 -72 c-3 -19 -10 -34 -15 -34 -9 0 -4 72 7 100 10 23 16 -26 8 -66z m40
29 c-11 -82 -16 -103 -27 -103 -7 0 -8 16 -4 46 3 26 6 60 6 75 0 20 5 29 16
29 12 0 14 -8 9 -47z m612 2 c-2 -5 -26 -10 -54 -10 -28 0 -49 3 -46 8 2 4 8
5 12 3 4 -3 12 -2 18 2 17 11 73 8 70 -3z m52 -22 c2 -2 -5 -3 -17 -3 -14 0
-22 6 -22 16 0 14 3 15 18 3 9 -7 19 -15 21 -16z m151 17 c0 -5 -7 -7 -15 -4
-8 4 -15 8 -15 10 0 2 7 4 15 4 8 0 15 -4 15 -10z m-281 -34 c-2 -2 -18 -10
-34 -19 -29 -14 -31 -14 -32 4 -1 15 5 19 34 19 20 0 34 -2 32 -4z m166 -7
c11 -16 -1 -22 -30 -15 -14 4 -23 11 -20 16 8 13 42 13 50 -1z m165 -5 c0 -11
-8 -14 -27 -12 -39 4 -42 28 -4 28 21 0 31 -5 31 -16z m-160 -44 c0 -5 -25
-10 -55 -10 -30 0 -55 5 -55 10 0 6 25 10 55 10 30 0 55 -4 55 -10z m160 -5
c0 -8 -7 -15 -15 -15 -8 0 -15 7 -15 15 0 8 7 15 15 15 8 0 15 -7 15 -15z
m-640 -25 c0 -5 -5 -10 -11 -10 -5 0 -7 5 -4 10 3 6 8 10 11 10 2 0 4 -4 4
-10z m320 -20 c0 -18 -33 -28 -57 -17 -35 16 -28 27 17 27 22 0 40 -4 40 -10z
m130 -5 c0 -8 -9 -15 -20 -15 -22 0 -27 -16 -8 -22 18 -6 0 -28 -25 -30 -12
-1 5 -4 38 -7 44 -4 60 -10 60 -21 0 -11 -12 -15 -52 -15 -49 0 -52 -1 -46
-22 5 -23 3 -23 -82 -23 -84 0 -86 1 -83 23 2 12 8 21 13 20 23 -3 62 -5 93
-4 27 1 32 5 32 26 0 14 -4 25 -10 25 -5 0 -10 7 -10 15 0 8 6 15 13 15 8 0 7
4 -3 10 -10 6 -11 10 -2 10 6 0 11 3 11 8 -3 18 4 22 41 22 29 0 40 -4 40 -15z
m187 -25 l0 -40 -83 0 c-82 0 -90 3 -79 33 5 11 17 12 62 5 59 -9 88 -5 78 12
-3 5 -3 15 0 20 13 21 22 8 22 -30z m268 31 c3 -5 1 -12 -5 -16 -5 -3 -10 1
-10 9 0 18 6 21 15 7z m-1162 -38 c-7 -2 -19 -2 -25 0 -7 3 -2 5 12 5 14 0 19
-2 13 -5z m157 -4 c0 -5 -25 -9 -55 -9 -30 0 -55 4 -55 9 0 5 25 10 55 10 30
0 55 -5 55 -10z m1130 1 c0 -5 -9 -10 -21 -10 -11 0 -17 5 -14 10 3 6 13 10
21 10 8 0 14 -4 14 -10z m-1152 -40 c6 0 12 -7 12 -15 0 -11 -8 -13 -31 -8
-20 4 -34 1 -39 -7 -9 -15 -30 -5 -30 15 0 16 26 25 55 19 11 -2 26 -4 33 -4z
m718 -50 c32 0 44 -4 44 -15 0 -12 -16 -15 -85 -15 -67 0 -85 3 -85 14 0 14
42 26 68 19 8 -1 34 -3 58 -3z m-516 -250 c0 -5 -7 -10 -15 -10 -8 0 -15 5
-15 10 0 6 7 10 15 10 8 0 15 -4 15 -10z m740 -26 c0 -2 -9 -4 -21 -4 -11 0
-18 4 -14 10 5 8 35 3 35 -6z m-312 -266 l3 -88 -74 0 c-43 0 -78 5 -85 12
-16 16 -16 140 0 156 9 9 37 12 83 10 l70 -3 3 -87z m-900 -50 c-22 -57 -49
-127 -61 -157 -18 -45 -22 -51 -32 -37 -7 9 -10 27 -8 40 4 18 -2 29 -20 40
-30 21 -55 12 -63 -23 -4 -14 -17 -37 -29 -51 -14 -15 -25 -45 -30 -75 -9 -70
-16 -95 -25 -95 -21 0 -309 123 -305 130 3 5 47 31 98 58 50 28 182 100 292
160 110 61 205 111 212 111 7 1 -5 -40 -29 -101z m1797 -68 c398 -255 485
-312 485 -318 0 -4 -24 -20 -53 -35 -90 -49 -304 -157 -310 -157 -3 0 -8 21
-12 48 -27 220 -50 309 -91 343 -22 18 -64 -4 -64 -35 0 -13 -7 -29 -15 -36
-17 -14 -14 -19 -76 159 -42 121 -47 147 -26 135 6 -5 80 -51 162 -104z
m-3252 -77 c-7 -2 -19 -2 -25 0 -7 3 -2 5 12 5 14 0 19 -2 13 -5z m-33 -363
c0 -5 -2 -10 -4 -10 -3 0 -8 5 -11 10 -3 6 -1 10 4 10 6 0 11 -4 11 -10z m328
-73 c3 -13 -4 -17 -32 -17 -41 0 -47 12 -13 28 28 13 41 10 45 -11z m-102 -49
c9 -15 -32 -48 -60 -48 -11 0 -27 4 -35 9 -11 7 -5 14 25 30 45 23 60 25 70 9z
m4314 -2 c0 -11 -19 -15 -25 -6 -3 5 1 10 9 10 9 0 16 -2 16 -4z m-4240 -16
c0 -5 -12 -10 -26 -10 -14 0 -23 4 -19 10 3 6 15 10 26 10 10 0 19 -4 19 -10z
m3954 -45 c18 -14 17 -15 -22 -15 -39 0 -51 8 -35 23 11 11 37 7 57 -8z
m-4086 -22 c-4 -22 -38 -30 -38 -10 0 14 13 24 33 26 5 1 7 -7 5 -16z m4188
-44 c43 -26 43 -39 1 -39 -36 0 -74 30 -62 49 9 16 24 14 61 -10z m-86 -8 c0
-4 -11 -6 -25 -3 -14 2 -25 6 -25 8 0 2 11 4 25 4 14 0 25 -4 25 -9z m110 -77
c0 -16 -26 -19 -35 -4 -3 6 -4 14 0 20 8 13 35 1 35 -16z"/>
<path d="M3848 2333 c-39 -10 -14 -20 47 -19 36 1 65 4 65 9 0 4 -15 7 -34 7
-19 0 -40 2 -48 4 -7 2 -21 2 -30 -1z"/>
</g>
</svg>
